# xmcd
#
# Track frame offsets: 
#        150
#        9084
#        14026
#        34692
#        89325
#        118044
#        148563
#        216825
#
# Disc length: 3614 seconds
#
# Revision: 0
# Processed by: cddbd v1.5.2PL0 Copyright (c) Steve Scherf et al.
# Submitted via: ExactAudioCopy v0.95b3
#
DISCID=640e1c08
DTITLE=Miles Davis Octet  - JVC Jazz-Festival, Houston, Texas 6-9-89  
DTITLE=FLAC
DYEAR=1900
DGENRE=
TTITLE0=Interview with Ricky Wellman
TTITLE1=In A Silent Way
TTITLE2=Intruder
TTITLE3=Star People
TTITLE4=Perfect Way
TTITLE5=Jilli
TTITLE6=Human Nature
TTITLE7=Carnival Time
EXTD=
EXTT0=
EXTT1=
EXTT2=
EXTT3=
EXTT4=
EXTT5=
EXTT6=
EXTT7=
PLAYORDER=
